<?xml version="1.0" encoding="UTF-8"?>
<svg width="280px" height="88px" viewBox="0 0 280 88" version="1.1" xmlns="http://www.w3.org/2000/svg" xmlns:xlink="http://www.w3.org/1999/xlink">
    <!-- Generator: Sketch 60.1 (88133) - https://sketch.com -->
    <title>Untitled 4</title>
    <desc>Created with Sketch.</desc>
    <g id="Page-1" stroke="none" stroke-width="1" fill="none" fill-rule="evenodd">
        <g id="chillax-logo">
            <polygon id="Path" fill="#EF5273" fill-rule="nonzero" points="50.69 21.79 50.69 21.83 63.05 28.97 63.11 28.93 63.11 14.66 63.08 14.64"></polygon>
            <polygon id="Path" fill="#EF5273" fill-rule="nonzero" points="75.48 21.8 63.37 14.81 63.37 28.79"></polygon>
            <polygon id="Path" fill="#EF5273" fill-rule="nonzero" points="37.71 14.34 37.77 14.31 37.77 0.03 37.72 0 25.36 7.13 25.36 7.2"></polygon>
            <polygon id="Path" fill="#CE1D4C" fill-rule="nonzero" points="0 22.13 0 36.1 12.1 29.12"></polygon>
            <polygon id="Path" fill="#EA3252" fill-rule="nonzero" points="38.03 43.73 38.03 43.78 50.38 50.91 50.44 50.9 50.44 36.61 50.38 36.59"></polygon>
            <polygon id="Path" fill="#EA3252" fill-rule="nonzero" points="63.05 58.54 50.69 65.69 50.69 65.72 63.08 72.88 63.11 72.84 63.11 58.57"></polygon>
            <polygon id="Path" fill="#CE1D4C" fill-rule="nonzero" points="12.68 58.72 12.68 72.69 24.77 65.71"></polygon>
            <polygon id="Path" fill="#EA3252" fill-rule="nonzero" points="63.37 43.42 75.47 36.44 63.37 29.46"></polygon>
            <polygon id="Path" fill="#CE1D4C" fill-rule="nonzero" points="0 36.76 0 50.76 12.13 43.77"></polygon>
            <polygon id="Path" fill="#EA3252" fill-rule="nonzero" points="50.69 50.73 62.79 43.75 50.69 36.77"></polygon>
            <polygon id="Path" fill="#CE1D4C" fill-rule="nonzero" points="12.41 43.28 12.41 29.01 12.36 28.97 0 36.12 0 36.16 12.38 43.3"></polygon>
            <polygon id="Path" fill="#CE1D4C" fill-rule="nonzero" points="0 51.4 0 65.37 12.1 58.4"></polygon>
            <polygon id="Path" fill="#CE1D4C" fill-rule="nonzero" points="25.36 66.04 25.36 80.01 37.45 73.03"></polygon>
            <polygon id="Path" fill="#EA3252" fill-rule="nonzero" points="63.37 58.04 75.48 51.07 63.37 44.09"></polygon>
            <polygon id="Path" fill="#EA3252" fill-rule="nonzero" points="63.37 72.7 75.48 65.72 63.37 58.73"></polygon>
            <polygon id="Path" fill="#EA3252" fill-rule="nonzero" points="50.69 80.02 62.81 73.03 50.69 66.03"></polygon>
            <polygon id="Path" fill="#EA3252" fill-rule="nonzero" points="63.37 29.09 63.37 29.15 75.74 36.28 75.79 36.25 75.79 21.98 75.74 21.94"></polygon>
            <polygon id="Path" fill="#EA3252" fill-rule="nonzero" points="50.44 65.88 50.39 65.85 38.03 72.99 38.03 73.06 50.39 80.19 50.44 80.18"></polygon>
            <polygon id="Path" fill="#EF5273" fill-rule="nonzero" points="25.36 7.5 25.36 21.47 37.45 14.49"></polygon>
            <polygon id="Path" fill="#CE1D4C" fill-rule="nonzero" points="25.36 51.05 25.36 51.09 37.72 58.24 37.77 58.2 37.77 43.93 37.72 43.91"></polygon>
            <polygon id="Path" fill="#EF5273" fill-rule="nonzero" points="50.14 7.16 38.03 0.17 38.03 14.15"></polygon>
            <polygon id="Path" fill="#EA3252" fill-rule="nonzero" points="38.03 87.34 50.14 80.34 38.03 73.36"></polygon>
            <polygon id="Path" fill="#EF5273" fill-rule="nonzero" points="38.03 14.52 50.39 21.66 50.44 21.64 50.44 7.33 50.39 7.32 38.03 14.46"></polygon>
            <polygon id="Path" fill="#EA3252" fill-rule="nonzero" points="63.37 43.73 63.37 43.78 75.74 50.91 75.79 50.88 75.79 36.62 75.74 36.59"></polygon>
            <polygon id="Path" fill="#CE1D4C" fill-rule="nonzero" points="25.08 65.88 25.04 65.87 12.68 72.99 12.68 73.06 25.04 80.19 25.08 80.15"></polygon>
            <polygon id="Path" fill="#CE1D4C" fill-rule="nonzero" points="37.71 73.18 25.36 80.3 25.36 80.37 37.72 87.51 37.77 87.48 37.77 73.2"></polygon>
            <polygon id="Path" fill="#EA3252" fill-rule="nonzero" points="50.69 51.05 50.69 51.1 63.05 58.24 63.11 58.19 63.11 43.93 63.05 43.91"></polygon>
            <polygon id="Path" fill="#CE1D4C" fill-rule="nonzero" points="12.41 58.56 12.36 58.53 0 65.67 0 65.74 12.36 72.87 12.41 72.83"></polygon>
            <polygon id="Path" fill="#CE1D4C" fill-rule="nonzero" points="25.36 50.73 37.45 43.75 25.36 36.77"></polygon>
            <polygon id="Path" fill="#EF5273" fill-rule="nonzero" points="37.72 29.27 25.36 36.42 25.36 36.47 37.72 43.6 37.77 43.57 37.77 29.3"></polygon>
            <polygon id="Path" fill="#EA3252" fill-rule="nonzero" points="63.37 58.35 63.37 58.42 75.74 65.55 75.79 65.53 75.79 51.26 75.74 51.23"></polygon>
            <polygon id="Path" fill="#EF5273" fill-rule="nonzero" points="38.03 43.43 50.13 36.45 38.03 29.46"></polygon>
            <polygon id="Path" fill="#EF5273" fill-rule="nonzero" points="12.36 28.96 12.41 28.93 12.41 14.68 12.36 14.63 0 21.78 0 21.83"></polygon>
            <polygon id="Path" fill="#CE1D4C" fill-rule="nonzero" points="12.41 43.92 12.38 43.91 0 51.06 0 51.1 12.36 58.24 12.41 58.2 12.41 43.92"></polygon>
            <polygon id="Path" fill="#EA3252" fill-rule="nonzero" points="38.03 58.04 50.13 51.07 38.03 44.08"></polygon>
            <polygon id="Path" fill="#EF5273" fill-rule="nonzero" points="62.81 14.49 50.69 7.49 50.69 21.48"></polygon>
            <polygon id="Path" fill="#EA3252" fill-rule="nonzero" points="50.69 36.42 50.69 36.47 63.05 43.6 63.11 43.57 63.11 29.3 63.05 29.27"></polygon>
            <polygon id="Path" fill="#EF5273" fill-rule="nonzero" points="24.77 21.81 12.68 14.82 12.68 28.79"></polygon>
            <polygon id="Path" fill="#EF5273" fill-rule="nonzero" points="25.04 21.65 25.08 21.62 25.08 7.35 25.04 7.32 12.68 14.45 12.68 14.52"></polygon>
            <text id="Chillax" fill="#4F4F4F" font-family="ArialMT, Arial" font-size="64.83" font-weight="normal">
                <tspan x="84.02" y="67.64">Chillax</tspan>
            </text>
        </g>
    </g>
</svg>