<?xml version="1.0" encoding="utf-8"?>
<!-- Generator: Adobe Illustrator 16.0.0, SVG Export Plug-In . SVG Version: 6.00 Build 0)  -->
<!DOCTYPE svg PUBLIC "-//W3C//DTD SVG 1.1//EN" "http://www.w3.org/Graphics/SVG/1.1/DTD/svg11.dtd">
<svg version="1.1" id="Layer_1" xmlns="http://www.w3.org/2000/svg" xmlns:xlink="http://www.w3.org/1999/xlink" x="0px" y="0px"
	 width="222px" height="52.12px" viewBox="0 0 222 52.12" enable-background="new 0 0 222 52.12" xml:space="preserve">
<g>
	<path fill="#FFFFFF" d="M68.046,32.996c0.071-0.189,0.145-0.375,0.222-0.559c0.077-0.184,0.163-0.357,0.257-0.523l9.861-17.435
		c0.095-0.153,0.189-0.248,0.284-0.284s0.225-0.053,0.39-0.053h1.259v25.097h-1.596v-21.39c0-0.308,0.018-0.632,0.053-0.976
		l-9.879,17.542c-0.166,0.308-0.402,0.461-0.709,0.461h-0.284c-0.295,0-0.532-0.153-0.709-0.461L57.049,16.856
		c0.036,0.343,0.053,0.674,0.053,0.993v21.39h-1.579V14.142h1.242c0.166,0,0.298,0.018,0.399,0.053s0.198,0.13,0.292,0.284
		l10.128,17.453C67.762,32.263,67.916,32.618,68.046,32.996z"/>
	<path fill="#FFFFFF" d="M93.568,21.308c0.993,0,1.913,0.171,2.758,0.515c0.845,0.343,1.578,0.842,2.199,1.499
		c0.621,0.656,1.105,1.463,1.454,2.421s0.523,2.057,0.523,3.299c0,0.26-0.039,0.438-0.115,0.532s-0.198,0.142-0.363,0.142H87.29
		v0.337c0,1.324,0.154,2.489,0.461,3.494c0.307,1.005,0.745,1.848,1.313,2.527c0.567,0.68,1.253,1.191,2.057,1.534
		s1.703,0.515,2.696,0.515c0.887,0,1.655-0.098,2.306-0.293c0.65-0.195,1.197-0.414,1.641-0.656s0.795-0.461,1.055-0.656
		s0.449-0.293,0.568-0.293c0.153,0,0.271,0.06,0.354,0.178l0.461,0.567c-0.284,0.354-0.659,0.687-1.126,0.993
		c-0.467,0.308-0.987,0.571-1.561,0.79s-1.188,0.393-1.844,0.522s-1.316,0.195-1.978,0.195c-1.206,0-2.306-0.21-3.299-0.63
		c-0.993-0.419-1.846-1.031-2.557-1.835c-0.711-0.805-1.261-1.789-1.649-2.953c-0.389-1.165-0.583-2.498-0.583-4
		c0-1.265,0.18-2.433,0.541-3.503c0.361-1.07,0.881-1.992,1.561-2.767c0.68-0.774,1.513-1.38,2.501-1.818
		C91.194,21.526,92.315,21.308,93.568,21.308z M93.595,22.567c-0.91,0-1.724,0.142-2.444,0.426s-1.343,0.692-1.868,1.224
		c-0.526,0.532-0.951,1.171-1.275,1.916c-0.325,0.745-0.54,1.579-0.646,2.501h11.617c0-0.946-0.13-1.794-0.39-2.545
		s-0.625-1.386-1.098-1.907c-0.472-0.521-1.039-0.919-1.7-1.197C95.129,22.706,94.397,22.567,93.595,22.567z"/>
	<path fill="#FFFFFF" d="M114.763,23.791c-0.083,0.166-0.213,0.248-0.39,0.248c-0.131,0-0.299-0.074-0.506-0.222
		s-0.479-0.313-0.816-0.497c-0.337-0.183-0.751-0.349-1.241-0.497c-0.49-0.148-1.091-0.222-1.8-0.222
		c-0.638,0-1.221,0.091-1.747,0.274c-0.526,0.183-0.975,0.427-1.348,0.734s-0.663,0.663-0.869,1.07
		c-0.207,0.407-0.311,0.834-0.311,1.282c0,0.554,0.142,1.015,0.426,1.38s0.656,0.678,1.117,0.937c0.461,0.26,0.984,0.484,1.57,0.673
		s1.186,0.378,1.8,0.566c0.615,0.189,1.216,0.399,1.8,0.63c0.585,0.23,1.108,0.518,1.569,0.86c0.462,0.343,0.834,0.763,1.118,1.259
		c0.283,0.497,0.425,1.1,0.425,1.81c0,0.769-0.139,1.483-0.416,2.146c-0.278,0.663-0.681,1.236-1.206,1.721
		c-0.526,0.485-1.174,0.869-1.942,1.153c-0.769,0.283-1.644,0.426-2.625,0.426c-1.242,0-2.312-0.198-3.21-0.595
		c-0.899-0.396-1.703-0.913-2.412-1.552l0.408-0.604c0.059-0.094,0.125-0.165,0.195-0.212c0.071-0.048,0.171-0.071,0.301-0.071
		c0.154,0,0.343,0.095,0.568,0.283c0.225,0.189,0.517,0.394,0.878,0.612c0.36,0.219,0.81,0.423,1.348,0.612
		c0.538,0.188,1.203,0.283,1.996,0.283c0.745,0,1.401-0.104,1.968-0.311c0.568-0.206,1.041-0.487,1.418-0.842
		c0.379-0.355,0.666-0.771,0.86-1.251c0.195-0.479,0.293-0.984,0.293-1.517c0-0.591-0.142-1.081-0.426-1.472
		c-0.283-0.391-0.656-0.721-1.117-0.993c-0.46-0.272-0.984-0.503-1.569-0.691c-0.586-0.189-1.189-0.379-1.81-0.568
		c-0.621-0.188-1.224-0.396-1.809-0.62s-1.108-0.509-1.57-0.852c-0.461-0.343-0.833-0.76-1.117-1.251
		c-0.284-0.49-0.426-1.102-0.426-1.835c0-0.626,0.136-1.229,0.408-1.809c0.272-0.579,0.659-1.087,1.162-1.525
		c0.502-0.437,1.114-0.786,1.835-1.046c0.721-0.26,1.531-0.39,2.43-0.39c1.076,0,2.03,0.156,2.864,0.468
		c0.833,0.312,1.599,0.788,2.297,1.43L114.763,23.791z"/>
	<path fill="#FFFFFF" d="M120.296,39.239V13.433h1.686v11.174c0.815-1.005,1.747-1.806,2.793-2.403
		c1.047-0.597,2.22-0.896,3.521-0.896c0.97,0,1.824,0.154,2.563,0.461c0.738,0.308,1.351,0.751,1.836,1.33
		c0.484,0.58,0.851,1.277,1.1,2.093c0.248,0.816,0.372,1.738,0.372,2.767v11.28h-1.685v-11.28c0-1.655-0.379-2.953-1.136-3.893
		c-0.757-0.94-1.915-1.41-3.476-1.41c-1.159,0-2.235,0.299-3.229,0.896c-0.993,0.597-1.88,1.416-2.66,2.457v13.231H120.296z"/>
	<path fill="#FFFFFF" d="M156.727,14.142v1.543h-8.815v23.554h-1.809V15.685h-8.868v-1.543H156.727z"/>
	<path fill="#FFFFFF" d="M160.22,39.239V13.433h1.686v11.174c0.815-1.005,1.747-1.806,2.793-2.403
		c1.047-0.597,2.22-0.896,3.521-0.896c0.97,0,1.824,0.154,2.563,0.461c0.738,0.308,1.351,0.751,1.836,1.33
		c0.484,0.58,0.851,1.277,1.1,2.093c0.248,0.816,0.372,1.738,0.372,2.767v11.28h-1.685v-11.28c0-1.655-0.379-2.953-1.136-3.893
		c-0.757-0.94-1.915-1.41-3.476-1.41c-1.159,0-2.235,0.299-3.229,0.896c-0.993,0.597-1.88,1.416-2.66,2.457v13.231H160.22z"/>
	<path fill="#FFFFFF" d="M186.062,21.308c0.993,0,1.912,0.171,2.758,0.515c0.846,0.343,1.579,0.842,2.199,1.499
		c0.621,0.656,1.105,1.463,1.455,2.421c0.349,0.958,0.522,2.057,0.522,3.299c0,0.26-0.038,0.438-0.115,0.532
		c-0.076,0.095-0.197,0.142-0.362,0.142h-12.735v0.337c0,1.324,0.153,2.489,0.461,3.494s0.745,1.848,1.313,2.527
		s1.253,1.191,2.058,1.534c0.804,0.343,1.702,0.515,2.695,0.515c0.887,0,1.655-0.098,2.306-0.293s1.197-0.414,1.641-0.656
		s0.796-0.461,1.056-0.656s0.449-0.293,0.567-0.293c0.153,0,0.272,0.06,0.355,0.178l0.461,0.567
		c-0.284,0.354-0.659,0.687-1.127,0.993c-0.467,0.308-0.987,0.571-1.561,0.79s-1.188,0.393-1.845,0.522s-1.315,0.195-1.978,0.195
		c-1.206,0-2.306-0.21-3.299-0.63c-0.993-0.419-1.846-1.031-2.557-1.835c-0.712-0.805-1.262-1.789-1.649-2.953
		c-0.389-1.165-0.583-2.498-0.583-4c0-1.265,0.181-2.433,0.541-3.503c0.36-1.07,0.881-1.992,1.561-2.767
		c0.681-0.774,1.514-1.38,2.501-1.818S184.809,21.308,186.062,21.308z M186.088,22.567c-0.909,0-1.725,0.142-2.444,0.426
		s-1.343,0.692-1.868,1.224c-0.525,0.532-0.95,1.171-1.275,1.916c-0.324,0.745-0.54,1.579-0.646,2.501h11.618
		c0-0.946-0.131-1.794-0.39-2.545c-0.261-0.751-0.626-1.386-1.099-1.907c-0.472-0.521-1.039-0.919-1.7-1.197
		S186.891,22.567,186.088,22.567z"/>
	<path fill="#FFFFFF" d="M197.536,39.239V21.591h0.923c0.307,0,0.484,0.148,0.532,0.443l0.159,2.554
		c0.343-0.485,0.71-0.928,1.1-1.33c0.391-0.402,0.807-0.748,1.251-1.038c0.443-0.29,0.916-0.515,1.418-0.674
		c0.503-0.159,1.032-0.239,1.588-0.239c1.289,0,2.317,0.375,3.086,1.126s1.289,1.794,1.561,3.13
		c0.213-0.733,0.511-1.366,0.895-1.898c0.384-0.532,0.823-0.972,1.319-1.321c0.496-0.349,1.036-0.609,1.62-0.78
		c0.585-0.171,1.184-0.257,1.798-0.257c0.873,0,1.658,0.145,2.355,0.435c0.696,0.29,1.289,0.718,1.779,1.286
		c0.49,0.567,0.864,1.265,1.125,2.093c0.26,0.828,0.39,1.773,0.39,2.838v11.28h-1.686v-11.28c0-1.727-0.372-3.042-1.117-3.946
		c-0.745-0.905-1.81-1.357-3.192-1.357c-0.615,0-1.203,0.112-1.765,0.337c-0.563,0.225-1.059,0.559-1.49,1.002
		s-0.774,0.997-1.028,1.659c-0.255,0.662-0.382,1.431-0.382,2.306v11.28h-1.685v-11.28c0-1.714-0.344-3.027-1.029-3.938
		s-1.685-1.366-2.997-1.366c-0.958,0-1.845,0.287-2.66,0.86c-0.816,0.574-1.543,1.369-2.182,2.386v13.338H197.536z"/>
</g>
<path fill="#FFFFFF" d="M15.725,19.53c0.001,0,0.004,0,0.004,0c-0.023-0.03-0.044-0.057-0.067-0.086
	c-0.046-0.062-0.093-0.123-0.14-0.18c-0.468-0.58-0.832-0.875-1.092-1.027c-0.059-0.036-0.118-0.067-0.179-0.092
	c-0.003-0.001-0.007-0.001-0.01-0.002c-0.21-0.084-0.316-0.057-0.316-0.057l0.001,0.005c-2.892,0.015-7.688,13.583-7.688,13.698
	c0,0-1.176,2.747-0.165,2.162c0.472-0.251,1.114-0.923,1.114-0.923s8.426-10.292,9.151-11.54c0,0,0,0,0,0
	c0.029-0.05,0.051-0.092,0.053-0.111c-0.044-0.716-0.295-1.295-0.6-1.753C15.771,19.59,15.746,19.562,15.725,19.53z"/>
<path fill="#FFFFFF" d="M45.138,12.875L22.479,0L0,13.184l0.179,26.06L22.837,52.12l22.479-13.186L45.138,12.875z M38.64,35.059
	c0,0-0.985-0.774-1.192-0.98c-2.896-2.95-9.047-11.378-9.108-11.169c0.438,0.373-3.361,12.892-3.287,12.767
	c-0.876,2.021-1.694,2.723-2.394,2.775c-0.7-0.053-1.518-0.754-2.394-2.775c0.073,0.125-3.726-12.394-3.288-12.767
	c-0.062-0.209-6.212,8.219-9.108,11.169c-0.207,0.206-1.192,0.98-1.192,0.98c0.07-0.12-2.894,2.213-1.786-3.001l0.116-0.416
	l0.058-0.176l0.044-0.135c0.655-1.629,3.996-10.83,5.433-13.808h0l0.005-0.012c0.139-0.288,0.261-0.514,0.359-0.671l0.649-1.218
	l0.001,0.001c0.894-1.731,3.161-4.519,6.273,3.134c0.002-0.004,0.006-0.008,0.008-0.014c0.065,0.147,0.164,0.392,0.296,0.768
	c0.864-1.442,4.709-6.989,9.114-0.145c0.364-0.926,0.808-1.905,0.818-1.926c2.815-5.992,4.86-3.44,5.698-1.818v-0.001l0.65,1.218
	c0.099,0.157,0.218,0.383,0.358,0.671l0.007,0.012h-0.001c1.436,2.978,4.777,12.179,5.432,13.808h0l0.045,0.135l0.057,0.176
	l0.116,0.416C41.532,37.271,38.569,34.938,38.64,35.059z"/>
<path fill="#FFFFFF" d="M18.585,21.149c0.458,2.95,1.98,11.601,4.073,11.435c2.148,0.171,3.693-8.94,4.105-11.649
	C26.073,19.581,22.647,13.698,18.585,21.149z"/>
<path fill="#FFFFFF" d="M31.065,18.144c-0.035,0.014-0.071,0.031-0.105,0.049v-0.002c-0.002,0.002-0.005,0.003-0.007,0.005
	c-0.044,0.023-0.087,0.049-0.129,0.082c0,0.001-0.003,0.003-0.003,0.004c-0.305,0.221-0.734,0.662-0.734,0.662l0.001,0.001
	c-0.187,0.187-0.384,0.41-0.563,0.68c-0.305,0.458-0.556,1.037-0.6,1.753c0.003,0.02,0.025,0.061,0.054,0.111
	c0.725,1.248,9.151,11.54,9.151,11.54s0.643,0.672,1.114,0.923c1.011,0.585-0.164-2.162-0.164-2.162
	C39.079,31.668,33.906,17.04,31.065,18.144z"/>
</svg>
