<?xml version="1.0" encoding="utf-8"?>
<!-- Generator: Adobe Illustrator 16.0.0, SVG Export Plug-In . SVG Version: 6.00 Build 0)  -->
<!DOCTYPE svg PUBLIC "-//W3C//DTD SVG 1.1//EN" "http://www.w3.org/Graphics/SVG/1.1/DTD/svg11.dtd">
<svg version="1.1" id="Layer_1" xmlns="http://www.w3.org/2000/svg" xmlns:xlink="http://www.w3.org/1999/xlink" x="0px" y="0px"
	 width="222px" height="28.33px" viewBox="0 0 222 28.33" enable-background="new 0 0 222 28.33" xml:space="preserve">
<linearGradient id="SVGID_1_" gradientUnits="userSpaceOnUse" x1="4.882813e-004" y1="14.165" x2="41.1865" y2="14.165">
	<stop  offset="0" style="stop-color:#DA22FF"/>
	<stop  offset="0.98" style="stop-color:#9733EE"/>
</linearGradient>
<path fill="url(#SVGID_1_)" d="M2.326,24.449c0,0,1.127-0.885,1.363-1.121C6.999,19.957,14.03,10.323,14.1,10.563
	c-0.5,0.426,3.841,14.736,3.758,14.591c1.001,2.311,1.936,3.113,2.736,3.174c0.8-0.061,1.734-0.863,2.736-3.174
	c-0.084,0.145,4.257-14.166,3.757-14.591c0.07-0.24,7.101,9.394,10.412,12.765c0.237,0.236,1.363,1.121,1.363,1.121
	c-0.081-0.137,3.307,2.531,2.042-3.43l-0.133-0.477l-0.065-0.201l-0.051-0.152h0c-0.749-1.863-4.567-12.379-6.209-15.783h0.001
	l-0.007-0.014c-0.16-0.329-0.296-0.588-0.409-0.767l-0.744-1.393v0.002c-0.958-1.855-3.296-4.771-6.513,2.078
	c-0.012,0.023-0.52,1.143-0.935,2.201c-5.035-7.823-9.43-1.483-10.417,0.166c-0.151-0.429-0.264-0.709-0.338-0.878
	c-0.003,0.007-0.007,0.011-0.01,0.016c-3.558-8.748-6.149-5.562-7.17-3.583L7.9,2.233L7.158,3.626
	c-0.112,0.179-0.251,0.438-0.41,0.767L6.742,4.407h0C5.1,7.811,1.281,18.326,0.532,20.189l0,0l-0.05,0.152l-0.066,0.201L0.284,21.02
	C-0.982,26.98,2.405,24.313,2.326,24.449z M28.44,6.807c0.206-0.309,0.431-0.563,0.645-0.777l-0.002-0.001
	c0,0,0.491-0.504,0.84-0.757c0-0.001,0.004-0.003,0.004-0.004c0.048-0.038,0.097-0.066,0.148-0.094
	c0.003-0.002,0.006-0.003,0.008-0.005v0.002c0.04-0.02,0.081-0.04,0.12-0.055c3.248-1.263,9.161,15.458,9.161,15.595
	c0,0,1.344,3.141,0.188,2.473c-0.54-0.287-1.274-1.057-1.274-1.057s-9.632-11.763-10.46-13.189l0,0
	c-0.033-0.058-0.059-0.105-0.063-0.127C27.805,7.992,28.092,7.331,28.44,6.807z M25.286,8.306
	c-0.471,3.097-2.237,13.511-4.692,13.315c-2.393,0.189-4.132-9.699-4.656-13.071C20.581,0.034,24.497,6.759,25.286,8.306z
	 M1.824,20.711c0-0.131,5.482-15.64,8.787-15.656L10.61,5.048c0,0,0.122-0.031,0.361,0.065c0.003,0.002,0.009,0.001,0.012,0.003
	c0.069,0.027,0.136,0.063,0.204,0.104c0.298,0.174,0.713,0.513,1.249,1.175c0.053,0.066,0.106,0.135,0.159,0.206
	c0.027,0.033,0.05,0.064,0.077,0.099c0,0-0.003,0-0.004,0c0.024,0.037,0.053,0.068,0.078,0.107c0.348,0.523,0.635,1.185,0.686,2.003
	c-0.003,0.022-0.028,0.07-0.062,0.127c0,0,0,0,0,0c-0.828,1.426-10.46,13.189-10.46,13.189s-0.734,0.77-1.273,1.057
	C0.48,23.852,1.824,20.711,1.824,20.711z"/>
<g>
	<path fill="#FFFFFF" d="M60.178,17.557c0.114,0.288,0.225,0.578,0.333,0.871c0.108-0.304,0.223-0.595,0.342-0.871
		c0.119-0.277,0.255-0.557,0.407-0.839L69.16,2.371c0.141-0.25,0.287-0.401,0.439-0.456c0.152-0.054,0.369-0.082,0.651-0.082h2.329
		V25.17h-2.768V8.021c0-0.228,0.005-0.472,0.016-0.733c0.011-0.26,0.027-0.526,0.049-0.798L61.88,21.082
		c-0.271,0.489-0.651,0.733-1.14,0.733h-0.456c-0.489,0-0.869-0.244-1.14-0.733l-8.175-14.64c0.033,0.282,0.057,0.559,0.073,0.831
		s0.024,0.521,0.024,0.749V25.17h-2.769V1.833h2.329c0.282,0,0.499,0.027,0.651,0.082c0.152,0.055,0.298,0.207,0.439,0.456
		l8.062,14.364C59.931,16.995,60.064,17.269,60.178,17.557z"/>
	<path fill="#FFFFFF" d="M84.337,8.413c0.988,0,1.899,0.166,2.736,0.497c0.836,0.331,1.558,0.809,2.166,1.433
		c0.608,0.625,1.083,1.395,1.425,2.313s0.513,1.962,0.513,3.135c0,0.455-0.049,0.76-0.147,0.911
		c-0.098,0.152-0.282,0.229-0.554,0.229H79.5c0.021,1.042,0.163,1.949,0.423,2.72c0.261,0.771,0.619,1.414,1.075,1.93
		c0.456,0.516,0.999,0.901,1.629,1.156c0.629,0.255,1.335,0.383,2.117,0.383c0.728,0,1.354-0.084,1.881-0.253
		c0.526-0.168,0.979-0.35,1.36-0.545c0.38-0.195,0.697-0.377,0.953-0.546c0.255-0.168,0.475-0.252,0.659-0.252
		c0.239,0,0.424,0.092,0.554,0.276l0.814,1.059c-0.358,0.435-0.787,0.812-1.287,1.132s-1.034,0.584-1.604,0.79
		s-1.159,0.361-1.767,0.464c-0.608,0.104-1.21,0.154-1.808,0.154c-1.14,0-2.19-0.192-3.151-0.578
		c-0.961-0.385-1.792-0.949-2.492-1.693c-0.7-0.743-1.246-1.663-1.637-2.76c-0.391-1.097-0.586-2.356-0.586-3.778
		c0-1.151,0.176-2.226,0.529-3.225c0.353-0.999,0.86-1.865,1.522-2.598s1.471-1.308,2.427-1.726
		C82.068,8.622,83.143,8.413,84.337,8.413z M84.402,10.546c-1.4,0-2.502,0.404-3.306,1.213c-0.804,0.809-1.303,1.93-1.499,3.363
		h8.973c0-0.673-0.092-1.289-0.277-1.849c-0.185-0.559-0.456-1.042-0.814-1.449c-0.358-0.407-0.795-0.722-1.311-0.945
		C85.653,10.657,85.064,10.546,84.402,10.546z"/>
	<path fill="#FFFFFF" d="M104.319,11.393c-0.13,0.239-0.332,0.358-0.603,0.358c-0.163,0-0.348-0.06-0.554-0.179
		c-0.207-0.12-0.459-0.252-0.757-0.399c-0.299-0.146-0.654-0.282-1.067-0.407c-0.413-0.125-0.901-0.188-1.465-0.188
		c-0.489,0-0.929,0.063-1.319,0.188c-0.391,0.125-0.725,0.296-1.001,0.513s-0.489,0.47-0.635,0.757
		c-0.146,0.288-0.22,0.6-0.22,0.937c0,0.423,0.122,0.776,0.366,1.059c0.245,0.283,0.567,0.527,0.969,0.733
		c0.401,0.207,0.857,0.389,1.368,0.546s1.034,0.325,1.572,0.505c0.537,0.179,1.061,0.377,1.571,0.594
		c0.51,0.218,0.966,0.489,1.368,0.814c0.401,0.326,0.725,0.725,0.969,1.197c0.245,0.472,0.367,1.039,0.367,1.701
		c0,0.761-0.136,1.464-0.407,2.109c-0.271,0.646-0.673,1.205-1.205,1.678c-0.532,0.472-1.184,0.844-1.954,1.115
		c-0.771,0.271-1.661,0.407-2.671,0.407c-1.151,0-2.193-0.188-3.127-0.563c-0.934-0.374-1.726-0.854-2.377-1.44l0.684-1.107
		c0.086-0.142,0.189-0.25,0.309-0.326c0.12-0.075,0.277-0.114,0.473-0.114c0.195,0,0.401,0.076,0.619,0.229
		c0.217,0.152,0.48,0.32,0.79,0.505c0.309,0.185,0.684,0.353,1.124,0.505c0.439,0.152,0.991,0.228,1.653,0.228
		c0.564,0,1.059-0.073,1.482-0.22s0.776-0.345,1.059-0.595c0.282-0.249,0.491-0.537,0.627-0.862
		c0.136-0.326,0.204-0.674,0.204-1.043c0-0.456-0.122-0.833-0.366-1.132c-0.245-0.298-0.568-0.554-0.969-0.765
		c-0.402-0.212-0.86-0.396-1.376-0.554s-1.042-0.323-1.58-0.497c-0.538-0.174-1.064-0.372-1.58-0.595
		c-0.516-0.222-0.974-0.502-1.376-0.839c-0.402-0.336-0.725-0.751-0.969-1.245c-0.245-0.494-0.367-1.094-0.367-1.8
		c0-0.629,0.13-1.235,0.391-1.816c0.26-0.581,0.64-1.091,1.14-1.531c0.5-0.439,1.113-0.79,1.84-1.05s1.558-0.391,2.492-0.391
		c1.085,0,2.06,0.171,2.923,0.513c0.863,0.342,1.609,0.812,2.239,1.409L104.319,11.393z"/>
	<path fill="#FFFFFF" d="M109.008,25.17V1.182h2.899v9.706c0.705-0.749,1.487-1.349,2.345-1.799
		c0.858-0.451,1.846-0.676,2.964-0.676c0.901,0,1.696,0.149,2.387,0.448c0.688,0.299,1.265,0.722,1.726,1.27
		c0.462,0.548,0.812,1.208,1.051,1.979c0.238,0.771,0.358,1.623,0.358,2.557V25.17h-2.899V14.666c0-1.249-0.284-2.217-0.854-2.907
		c-0.57-0.689-1.441-1.034-2.614-1.034c-0.857,0-1.658,0.206-2.401,0.619c-0.744,0.413-1.432,0.972-2.061,1.677V25.17H109.008z"/>
	<path fill="#FFFFFF" d="M143.469,1.833v2.655h-7.541V25.17h-3.159V4.488h-7.572V1.833H143.469z"/>
	<path fill="#FFFFFF" d="M146.335,25.17V1.182h2.898v9.706c0.706-0.749,1.487-1.349,2.345-1.799
		c0.858-0.451,1.846-0.676,2.964-0.676c0.901,0,1.696,0.149,2.387,0.448c0.688,0.299,1.265,0.722,1.726,1.27
		c0.462,0.548,0.812,1.208,1.051,1.979c0.238,0.771,0.358,1.623,0.358,2.557V25.17h-2.899V14.666c0-1.249-0.284-2.217-0.854-2.907
		c-0.57-0.689-1.441-1.034-2.614-1.034c-0.857,0-1.658,0.206-2.401,0.619c-0.744,0.413-1.431,0.972-2.061,1.677V25.17H146.335z"/>
	<path fill="#FFFFFF" d="M170.975,8.413c0.987,0,1.899,0.166,2.735,0.497s1.559,0.809,2.166,1.433
		c0.608,0.625,1.083,1.395,1.426,2.313c0.342,0.917,0.513,1.962,0.513,3.135c0,0.455-0.049,0.76-0.146,0.911
		c-0.098,0.152-0.283,0.229-0.554,0.229h-10.977c0.021,1.042,0.163,1.949,0.424,2.72c0.26,0.771,0.618,1.414,1.074,1.93
		s0.999,0.901,1.629,1.156c0.629,0.255,1.335,0.383,2.117,0.383c0.727,0,1.354-0.084,1.881-0.253
		c0.526-0.168,0.979-0.35,1.359-0.545s0.697-0.377,0.953-0.546c0.255-0.168,0.475-0.252,0.659-0.252
		c0.239,0,0.424,0.092,0.554,0.276l0.814,1.059c-0.358,0.435-0.787,0.812-1.286,1.132c-0.5,0.32-1.034,0.584-1.604,0.79
		s-1.159,0.361-1.767,0.464c-0.608,0.104-1.211,0.154-1.808,0.154c-1.141,0-2.19-0.192-3.151-0.578
		c-0.961-0.385-1.792-0.949-2.492-1.693c-0.7-0.743-1.245-1.663-1.637-2.76c-0.391-1.097-0.586-2.356-0.586-3.778
		c0-1.151,0.177-2.226,0.529-3.225s0.86-1.865,1.522-2.598s1.472-1.308,2.427-1.726S169.78,8.413,170.975,8.413z M171.04,10.546
		c-1.401,0-2.503,0.404-3.307,1.213c-0.804,0.809-1.303,1.93-1.498,3.363h8.974c0-0.673-0.093-1.289-0.277-1.849
		c-0.185-0.559-0.456-1.042-0.814-1.449s-0.795-0.722-1.311-0.945C172.291,10.657,171.702,10.546,171.04,10.546z"/>
	<path fill="#FFFFFF" d="M181.511,25.17V8.673h1.726c0.413,0,0.674,0.201,0.782,0.603l0.212,1.694
		c0.607-0.749,1.289-1.362,2.043-1.84c0.755-0.478,1.632-0.716,2.631-0.716c1.118,0,2.021,0.309,2.711,0.928
		c0.689,0.619,1.187,1.455,1.49,2.508c0.229-0.597,0.529-1.113,0.904-1.547c0.374-0.434,0.795-0.792,1.262-1.075
		c0.467-0.282,0.964-0.488,1.49-0.619s1.061-0.195,1.604-0.195c0.869,0,1.643,0.138,2.321,0.415s1.254,0.682,1.727,1.213
		c0.472,0.532,0.833,1.186,1.082,1.962c0.25,0.776,0.375,1.664,0.375,2.663V25.17h-2.898V14.666c0-1.292-0.283-2.272-0.847-2.939
		c-0.565-0.668-1.385-1.001-2.46-1.001c-0.478,0-0.931,0.084-1.359,0.252s-0.806,0.415-1.132,0.741s-0.584,0.736-0.773,1.229
		c-0.19,0.494-0.285,1.067-0.285,1.718V25.17h-2.898V14.666c0-1.325-0.267-2.313-0.798-2.964c-0.532-0.651-1.309-0.977-2.329-0.977
		c-0.717,0-1.382,0.193-1.995,0.578s-1.176,0.909-1.686,1.571V25.17H181.511z"/>
	<path fill="#FFFFFF" d="M214.781,8.413c0.987,0,1.899,0.166,2.735,0.497s1.559,0.809,2.166,1.433
		c0.608,0.625,1.083,1.395,1.426,2.313c0.342,0.917,0.513,1.962,0.513,3.135c0,0.455-0.049,0.76-0.146,0.911
		c-0.098,0.152-0.283,0.229-0.554,0.229h-10.977c0.021,1.042,0.163,1.949,0.424,2.72c0.26,0.771,0.618,1.414,1.074,1.93
		s0.999,0.901,1.629,1.156c0.629,0.255,1.335,0.383,2.117,0.383c0.727,0,1.354-0.084,1.881-0.253
		c0.526-0.168,0.979-0.35,1.359-0.545s0.697-0.377,0.953-0.546c0.255-0.168,0.475-0.252,0.659-0.252
		c0.239,0,0.424,0.092,0.554,0.276l0.814,1.059c-0.358,0.435-0.787,0.812-1.286,1.132c-0.5,0.32-1.034,0.584-1.604,0.79
		s-1.159,0.361-1.767,0.464c-0.608,0.104-1.211,0.154-1.808,0.154c-1.141,0-2.19-0.192-3.151-0.578
		c-0.961-0.385-1.792-0.949-2.492-1.693c-0.7-0.743-1.245-1.663-1.637-2.76c-0.391-1.097-0.586-2.356-0.586-3.778
		c0-1.151,0.177-2.226,0.529-3.225s0.86-1.865,1.522-2.598s1.472-1.308,2.427-1.726S213.587,8.413,214.781,8.413z M214.847,10.546
		c-1.401,0-2.503,0.404-3.307,1.213c-0.804,0.809-1.303,1.93-1.498,3.363h8.974c0-0.673-0.093-1.289-0.277-1.849
		c-0.185-0.559-0.456-1.042-0.814-1.449s-0.795-0.722-1.311-0.945C216.098,10.657,215.509,10.546,214.847,10.546z"/>
</g>
</svg>
