<?xml version="1.0" encoding="utf-8"?>
<!-- Generator: Adobe Illustrator 16.0.0, SVG Export Plug-In . SVG Version: 6.00 Build 0)  -->
<!DOCTYPE svg PUBLIC "-//W3C//DTD SVG 1.1//EN" "http://www.w3.org/Graphics/SVG/1.1/DTD/svg11.dtd">
<svg version="1.1" id="Layer_1" xmlns="http://www.w3.org/2000/svg" xmlns:xlink="http://www.w3.org/1999/xlink" x="0px" y="0px"
	 width="190px" height="40px" viewBox="0 0 190 40" enable-background="new 0 0 190 40" xml:space="preserve">
<text transform="matrix(1 0 0 1 41.4653 30.1875)" font-family="'Lato-Regular'" font-size="27.2887">MeshTheme</text>
<polygon fill="#FFFFFF" points="0.138,30.19 0,10.143 17.293,0 34.724,9.905 34.861,29.952 17.568,40.096 "/>
<linearGradient id="SVGID_1_" gradientUnits="userSpaceOnUse" x1="3.5718" y1="20.0479" x2="31.2896" y2="20.0479">
	<stop  offset="0" style="stop-color:#DA22FF"/>
	<stop  offset="0.98" style="stop-color:#9733EE"/>
</linearGradient>
<path fill="url(#SVGID_1_)" d="M5.137,26.969c0,0,0.758-0.595,0.917-0.752c2.228-2.27,6.959-8.755,7.006-8.593
	c-0.337,0.287,2.585,9.918,2.529,9.821c0.674,1.556,1.302,2.095,1.841,2.134c0.539-0.039,1.168-0.578,1.842-2.134
	c-0.058,0.097,2.865-9.534,2.529-9.821c0.047-0.162,4.779,6.323,7.006,8.593c0.16,0.157,0.918,0.752,0.918,0.752
	c-0.054-0.092,2.225,1.705,1.374-2.308l-0.089-0.319l-0.044-0.135l-0.034-0.104l0,0c-0.503-1.254-3.073-8.332-4.179-10.623h0.001
	l-0.005-0.009c-0.107-0.221-0.199-0.395-0.275-0.517l-0.5-0.936v0c-0.645-1.249-2.218-3.211-4.384,1.398
	c-0.007,0.016-0.349,0.769-0.629,1.481c-3.388-5.266-6.347-0.998-7.011,0.111c-0.101-0.288-0.178-0.477-0.228-0.59
	c-0.002,0.003-0.005,0.007-0.007,0.01c-2.394-5.888-4.138-3.743-4.825-2.411l0,0l-0.5,0.936c-0.076,0.122-0.169,0.295-0.276,0.517
	L8.109,13.48h0C7.004,15.771,4.434,22.85,3.93,24.104l0,0l-0.034,0.104l-0.045,0.135l-0.089,0.319
	C2.911,28.674,5.19,26.877,5.137,26.969z M22.712,15.096c0.139-0.208,0.291-0.379,0.434-0.523l-0.001-0.001
	c0,0,0.33-0.338,0.564-0.508c0-0.001,0.002-0.002,0.002-0.003c0.033-0.025,0.066-0.045,0.1-0.063
	c0.002-0.001,0.004-0.002,0.006-0.004v0.001c0.027-0.014,0.054-0.026,0.081-0.038c2.185-0.85,6.166,10.404,6.166,10.497
	c0,0,0.904,2.111,0.125,1.663c-0.363-0.193-0.857-0.709-0.857-0.709s-6.482-7.918-7.041-8.878l0,0
	c-0.022-0.039-0.038-0.07-0.041-0.085C22.285,15.894,22.477,15.449,22.712,15.096z M20.589,16.105
	c-0.317,2.083-1.506,9.093-3.159,8.961c-1.61,0.129-2.781-6.527-3.133-8.797C17.422,10.538,20.058,15.064,20.589,16.105z
	 M4.799,24.455c0-0.089,3.69-10.526,5.915-10.538l-0.001-0.004c0,0,0.082-0.021,0.242,0.043c0.002,0.001,0.006,0.001,0.008,0.001
	C11.01,13.977,11.056,14,11.1,14.029c0.201,0.116,0.48,0.344,0.84,0.79c0.036,0.045,0.072,0.091,0.108,0.14
	c0.018,0.022,0.034,0.042,0.052,0.066c0.001,0-0.002,0-0.002,0c0.016,0.024,0.035,0.045,0.052,0.071
	c0.234,0.353,0.428,0.798,0.462,1.349c-0.002,0.015-0.019,0.046-0.041,0.085l0,0c-0.559,0.96-7.041,8.878-7.041,8.878
	s-0.494,0.516-0.857,0.709C3.895,26.566,4.799,24.455,4.799,24.455z"/>
</svg>
