<?xml version="1.0" encoding="utf-8"?>
<!-- Generator: Adobe Illustrator 16.0.0, SVG Export Plug-In . SVG Version: 6.00 Build 0)  -->
<!DOCTYPE svg PUBLIC "-//W3C//DTD SVG 1.1//EN" "http://www.w3.org/Graphics/SVG/1.1/DTD/svg11.dtd">
<svg version="1.1" id="Layer_1" xmlns="http://www.w3.org/2000/svg" xmlns:xlink="http://www.w3.org/1999/xlink" x="0px" y="0px"
	 width="172px" height="50px" viewBox="0 0 172 50" enable-background="new 0 0 172 50" xml:space="preserve">
<text transform="matrix(0.9551 0 0 1 48.3345 49.7461)"><tspan x="0" y="0" fill="#FFFFFF" font-family="'Tahoma'" font-size="25.0576">ESH</tspan><tspan x="44.94" y="0" fill="#FFFFFF" font-family="'Tahoma-Bold'" font-size="33.8277">T</tspan><tspan x="65.653" y="0" fill="#FFFFFF" font-family="'Tahoma'" font-size="25.0576">HEME</tspan></text>
<g>
	<g>
		<path fill="#FFFFFF" d="M23.299,35.426c0.001,0,0.011,0.01,0.011,0.008c0.087-0.07,0.18-0.141,0.267-0.213l7.198-5.289l0.129,0.08
			l-0.113-0.09l0.307-0.229l-0.007-0.006C63.707,7.545,106.626,0.253,106.626,0.253c-35.786,1.312-67.16,16.85-81.403,25.081
			l-9.096-7.49H11.31H0.687l21.677,18.273L23.299,35.426z"/>
		<path fill="#FFFFFF" d="M33.91,49.689h10.387v-25.11c-3.519,1.899-6.999,3.938-10.387,6.132V49.689z"/>
		<polygon fill="#FFFFFF" points="10.817,29.496 0.432,20.742 0.432,49.689 10.817,49.689 		"/>
	</g>
</g>
</svg>
