<svg xmlns="http://www.w3.org/2000/svg" width="190" height="40" viewBox="0 0 190 40"><g fill="#333"><path d="M53.793 23.809c.096.241.188.484.28.73.091-.255.186-.498.287-.73.1-.231.213-.466.341-.702l6.618-12.021c.118-.209.241-.336.368-.382s.31-.068.546-.068h1.951v19.552h-2.319V15.82a15.833 15.833 0 01.055-1.282l-6.699 12.225c-.228.409-.546.614-.955.614h-.382c-.41 0-.728-.205-.955-.614l-6.85-12.266c.027.237.048.469.062.696.014.228.021.437.021.627v14.368h-2.32V10.635h1.951c.236 0 .418.023.546.068s.25.173.368.382l6.754 12.035c.125.218.236.447.332.689zM74.034 16.147c.828 0 1.592.139 2.292.416.7.278 1.305.678 1.814 1.201.509.523.907 1.169 1.194 1.938.287.769.43 1.644.43 2.626 0 .382-.041.637-.123.765-.082.127-.237.19-.464.19h-9.196c.018.873.136 1.633.354 2.279.219.646.519 1.185.901 1.616.382.433.836.755 1.364.969.527.214 1.119.321 1.774.321.609 0 1.134-.07 1.576-.212a7.515 7.515 0 001.14-.457c.318-.164.584-.316.798-.457s.398-.212.553-.212c.2 0 .354.078.464.232l.682.887c-.3.364-.66.68-1.078.948-.418.269-.867.489-1.344.662s-.971.302-1.48.389a9.08 9.08 0 01-1.514.13c-.955 0-1.835-.162-2.641-.484a5.797 5.797 0 01-2.087-1.419c-.586-.623-1.044-1.395-1.371-2.313-.328-.918-.491-1.974-.491-3.165 0-.964.147-1.864.443-2.702a6.344 6.344 0 011.276-2.176c.555-.614 1.232-1.096 2.033-1.446s1.701-.526 2.701-.526zm.055 1.788c-1.173 0-2.097.339-2.77 1.016-.673.678-1.091 1.617-1.255 2.818h7.518c0-.564-.077-1.081-.232-1.549a3.46 3.46 0 00-.682-1.214 3.081 3.081 0 00-1.098-.792c-.433-.186-.926-.279-1.481-.279zM90.775 18.645c-.109.2-.277.3-.505.3-.136 0-.291-.05-.464-.15s-.384-.211-.634-.334c-.25-.123-.548-.236-.894-.341s-.755-.157-1.228-.157c-.409 0-.777.052-1.105.157s-.607.248-.839.43a1.912 1.912 0 00-.532.634 1.703 1.703 0 00-.185.785c0 .355.103.65.307.887s.475.441.812.614c.336.173.718.325 1.146.457s.867.273 1.317.423c.45.15.889.316 1.316.498.428.183.81.409 1.146.683.336.272.607.607.812 1.003s.307.871.307 1.426c0 .637-.114 1.226-.341 1.767s-.564 1.01-1.01 1.405-.991.708-1.637.935c-.646.228-1.392.342-2.238.342-.964 0-1.837-.157-2.62-.471-.782-.314-1.446-.717-1.992-1.208l.573-.928a.841.841 0 01.259-.273.734.734 0 01.396-.095c.164 0 .336.063.519.19.182.128.403.269.662.423.259.155.573.296.941.424.368.127.83.19 1.385.19.473 0 .887-.062 1.242-.184.354-.123.65-.289.887-.498.236-.21.412-.451.525-.724s.17-.563.17-.873c0-.382-.102-.698-.307-.948a2.615 2.615 0 00-.812-.642 6.67 6.67 0 00-1.153-.464c-.432-.132-.874-.271-1.324-.416s-.892-.312-1.323-.498a4.66 4.66 0 01-1.153-.703 3.185 3.185 0 01-.812-1.044c-.205-.413-.307-.916-.307-1.507 0-.527.109-1.034.328-1.521s.537-.914.955-1.283c.418-.368.932-.662 1.542-.88s1.305-.328 2.088-.328c.909 0 1.726.143 2.449.43s1.348.68 1.876 1.18l-.545.887zM94.705 30.188V10.089h2.429v8.132a7.449 7.449 0 011.965-1.507c.718-.377 1.546-.566 2.483-.566.754 0 1.421.125 1.998.375.578.25 1.061.605 1.447 1.064a4.67 4.67 0 01.879 1.658c.201.646.301 1.36.301 2.142v8.801h-2.429v-8.801c0-1.046-.239-1.857-.716-2.436-.479-.577-1.208-.866-2.19-.866-.719 0-1.39.173-2.013.519s-1.198.814-1.726 1.405v10.179h-2.428zM123.577 10.635v2.224h-6.318v17.328h-2.646V12.859h-6.346v-2.224h15.31zM125.978 30.188V10.089h2.429v8.132c.591-.627 1.246-1.13 1.965-1.507s1.546-.566 2.483-.566c.755 0 1.421.125 1.999.375.577.25 1.06.605 1.446 1.064.386.459.68 1.012.88 1.658.2.646.3 1.36.3 2.142v8.801h-2.429v-8.801c0-1.046-.238-1.857-.716-2.436-.478-.577-1.208-.866-2.19-.866-.719 0-1.39.173-2.013.519s-1.198.814-1.726 1.405v10.179h-2.428zM146.622 16.147c.827 0 1.591.139 2.292.416.7.278 1.305.678 1.814 1.201.51.523.907 1.169 1.194 1.938.286.769.43 1.644.43 2.626 0 .382-.041.637-.123.765-.082.127-.236.19-.464.19h-9.196c.019.873.137 1.633.354 2.279.219.646.519 1.185.9 1.616.383.433.837.755 1.365.969.527.214 1.118.321 1.773.321.609 0 1.135-.07 1.576-.212.44-.141.82-.293 1.139-.457s.585-.316.799-.457c.213-.141.397-.212.552-.212.2 0 .355.078.465.232l.682.887c-.3.364-.659.68-1.078.948-.418.269-.866.489-1.344.662s-.971.302-1.48.389a9.1 9.1 0 01-1.515.13c-.955 0-1.835-.162-2.64-.484-.806-.323-1.501-.796-2.088-1.419s-1.044-1.395-1.371-2.313c-.327-.918-.491-1.974-.491-3.165 0-.964.147-1.864.443-2.702a6.374 6.374 0 011.275-2.176c.555-.614 1.232-1.096 2.033-1.446s1.703-.526 2.704-.526zm.054 1.788c-1.173 0-2.097.339-2.77 1.016-.673.678-1.092 1.617-1.255 2.818h7.518c0-.564-.077-1.081-.231-1.549a3.447 3.447 0 00-.683-1.214 3.067 3.067 0 00-1.099-.792c-.431-.186-.925-.279-1.48-.279zM155.449 30.188V16.366h1.446c.346 0 .563.168.655.505l.177 1.419a7.12 7.12 0 011.713-1.542c.632-.4 1.366-.601 2.203-.601.937 0 1.694.259 2.271.778.578.519.994 1.219 1.249 2.101a4.304 4.304 0 011.815-2.196 4.53 4.53 0 011.248-.519 5.59 5.59 0 011.345-.164c.728 0 1.375.116 1.944.348a3.854 3.854 0 011.446 1.016c.396.446.697.994.907 1.645.209.65.313 1.394.313 2.23v8.801h-2.429v-8.801c0-1.082-.236-1.903-.709-2.462-.474-.56-1.16-.839-2.061-.839-.4 0-.78.071-1.14.211a2.747 2.747 0 00-.948.621 2.895 2.895 0 00-.647 1.03c-.16.414-.239.894-.239 1.439v8.801h-2.429v-8.801c0-1.109-.223-1.938-.669-2.483-.445-.546-1.096-.819-1.951-.819-.6 0-1.157.162-1.671.484-.514.323-.984.762-1.412 1.317v10.301h-2.427zM183.324 16.147c.827 0 1.591.139 2.292.416.7.278 1.305.678 1.814 1.201.51.523.907 1.169 1.194 1.938.286.769.43 1.644.43 2.626 0 .382-.041.637-.123.765-.082.127-.236.19-.464.19h-9.196c.019.873.137 1.633.354 2.279.219.646.519 1.185.9 1.616.383.433.837.755 1.365.969.527.214 1.118.321 1.773.321.609 0 1.135-.07 1.576-.212.44-.141.82-.293 1.139-.457s.585-.316.799-.457c.213-.141.397-.212.552-.212.2 0 .355.078.465.232l.682.887c-.3.364-.659.68-1.078.948-.418.269-.866.489-1.344.662s-.971.302-1.48.389a9.1 9.1 0 01-1.515.13c-.955 0-1.835-.162-2.64-.484-.806-.323-1.501-.796-2.088-1.419s-1.044-1.395-1.371-2.313c-.327-.918-.491-1.974-.491-3.165 0-.964.147-1.864.443-2.702a6.374 6.374 0 011.275-2.176c.555-.614 1.232-1.096 2.033-1.446s1.703-.526 2.704-.526zm.054 1.788c-1.173 0-2.097.339-2.77 1.016-.673.678-1.092 1.617-1.255 2.818h7.518c0-.564-.077-1.081-.231-1.549a3.447 3.447 0 00-.683-1.214 3.067 3.067 0 00-1.099-.792c-.431-.186-.924-.279-1.48-.279z"/></g><linearGradient id="a" x1="0" x2="34.861" y1="20.048" y2="20.048" gradientUnits="userSpaceOnUse"><stop offset="0" stop-color="#da22ff"/><stop offset=".98" stop-color="#9733ee"/></linearGradient><path fill="url(#a)" d="M.138 30.19L0 10.143 17.293 0l17.431 9.905.137 20.047-17.293 10.144z"/><path fill="#FFF" d="M5.137 26.969s.758-.595.917-.752c2.228-2.27 6.959-8.755 7.006-8.593-.337.287 2.585 9.918 2.529 9.821.674 1.556 1.302 2.095 1.841 2.134.539-.039 1.168-.578 1.842-2.134-.058.097 2.865-9.534 2.529-9.821.047-.162 4.779 6.323 7.006 8.593.16.157.918.752.918.752-.054-.092 2.225 1.705 1.374-2.308l-.089-.319-.044-.135-.034-.104c-.503-1.254-3.073-8.332-4.179-10.623h.001l-.005-.009a5.88 5.88 0 0 0-.275-.517l-.5-.936c-.645-1.249-2.218-3.211-4.384 1.398-.007.016-.349.769-.629 1.481-3.388-5.266-6.347-.998-7.011.111a8.203 8.203 0 0 0-.228-.59l-.007.01c-2.394-5.888-4.138-3.743-4.825-2.411l-.5.936a5.701 5.701 0 0 0-.276.517l-.005.01c-1.105 2.291-3.675 9.37-4.179 10.624l-.034.104-.045.135-.089.319c-.851 4.012 1.428 2.215 1.375 2.307zm17.575-11.873c.139-.208.291-.379.434-.523l-.001-.001s.33-.338.564-.508l.002-.003a.722.722 0 0 1 .1-.063l.006-.004v.001c.027-.014.054-.026.081-.038 2.185-.85 6.166 10.404 6.166 10.497 0 0 .904 2.111.125 1.663-.363-.193-.857-.709-.857-.709s-6.482-7.918-7.041-8.878a.42.42 0 0 1-.041-.085c.035-.551.227-.996.462-1.349zm-2.123 1.009c-.317 2.083-1.506 9.093-3.159 8.961-1.61.129-2.781-6.527-3.133-8.797 3.125-5.731 5.761-1.205 6.292-.164zm-15.79 8.35c0-.089 3.69-10.526 5.915-10.538l-.001-.004s.082-.021.242.043l.008.001c.047.02.093.043.137.072.201.116.48.344.84.79.036.045.072.091.108.14l.052.066h-.002c.016.024.035.045.052.071.234.353.428.798.462 1.349a.37.37 0 0 1-.041.085c-.559.96-7.041 8.878-7.041 8.878s-.494.516-.857.709c-.778.449.126-1.662.126-1.662z"/></svg>